<?xml version="1.0" standalone="no"?>
<!DOCTYPE svg PUBLIC "-//W3C//DTD SVG 1.1//EN" "http://www.w3.org/Graphics/SVG/1.1/DTD/svg11.dtd" >
<svg xmlns="http://www.w3.org/2000/svg">
<metadata></metadata>
<defs>
<font id="siyam_rupaliregular" horiz-adv-x="921" >
<font-face units-per-em="2048" ascent="1638" descent="-410" />
<missing-glyph horiz-adv-x="744" />
<glyph horiz-adv-x="0" />
<glyph horiz-adv-x="0" />
<glyph unicode="&#xd;" horiz-adv-x="744" />
<glyph unicode=" "  horiz-adv-x="744" />
<glyph unicode="&#x09;" horiz-adv-x="744" />
<glyph unicode="&#xa0;" horiz-adv-x="744" />
<glyph unicode="!" horiz-adv-x="815" d="M390 222q0 46 32.5 78.5t78.5 32.5q45 0 78 -32.5t33 -78.5t-33 -78t-78 -32q-46 0 -78.5 32t-32.5 78zM413 1564h172l-19 -1030h-135z" />
<glyph unicode="&#x22;" horiz-adv-x="960" d="M196 1039v551h141v-551h-141zM622 1045v545h142v-545h-142z" />
<glyph unicode="#" horiz-adv-x="1382" d="M8 597v141h1289v-141h-1289zM108 1127v142h1261v-142h-1261zM235 58l271 1747l142 -22l-270 -1747zM760 58l271 1747l142 -22l-267 -1747z" />
<glyph unicode="%" horiz-adv-x="2076" d="M215 1308q0 96 33.5 190.5t89.5 169.5t129 121.5t153 46.5q24 0 49 -10t41 -29q34 -39 62.5 -61.5t59.5 -34t69.5 -15t93.5 -3.5q314 0 451 140l108 -87l-984 -1791l-122 66l874 1590q-57 -23 -107.5 -33.5t-98.5 -10.5t-256 99q-26 0 -50 -33l8 -50t4 -48 q0 -85 -31.5 -173t-85.5 -160.5t-123.5 -118.5t-146.5 -46q-50 0 -90.5 20.5t-69.5 57.5t-44.5 89t-15.5 114zM356 1282q0 -113 67 -113q51 0 97.5 33t82.5 86.5t56.5 119.5t20.5 132q0 138 -89 138q-48 0 -90.5 -36.5t-75 -94t-51 -127.5t-18.5 -138zM1222 337q0 95 31 187 t84 164.5t125 118t153 45.5q104 0 158.5 -80.5t54.5 -249.5q0 -49 -15.5 -102.5t-43 -105t-65 -97.5t-80.5 -81t-89.5 -55t-94.5 -20t-88.5 19.5t-69 56t-44.5 87.5t-16 113zM1363 315q0 -113 67 -113q50 0 96.5 33.5t82 86t56.5 118.5t21 132q0 138 -88 138 q-48 0 -91.5 -36.5t-75 -94t-50 -127.5t-18.5 -137z" />
<glyph unicode="&#x26;" horiz-adv-x="1448" d="M119 362q0 252 327 420q-155 198 -155 338q0 146 106.5 242t270.5 96q156 0 249 -85t93 -214q0 -127 -69 -216.5t-255 -182.5q206 -218 375 -383q110 162 115 381h151q-1 -272 -172 -486q41 -40 271 -272h-230l-154 158q-194 -182 -468 -182q-213 0 -334 109t-121 277z M286 368q0 -112 81.5 -183t206.5 -71q220 0 374 142q-140 142 -410 426q-252 -123 -252 -314zM454 1120q0 -109 142 -266q254 122 254 291q0 77 -52.5 129.5t-125.5 52.5q-100 0 -159 -58t-59 -149z" />
<glyph unicode="'" horiz-adv-x="425" d="M143 1045v561h142v-561h-142z" />
<glyph unicode="(" d="M171 728q0 172 37.5 342.5t113 325t191.5 288.5t273 237l82 -111q-140 -87 -245 -206t-173.5 -260t-102.5 -297t-34 -317q0 -166 36 -330t105.5 -313.5t171.5 -278t234 -222.5l-89 -103q-146 108 -258 249t-187.5 302.5t-115 338t-39.5 355.5z" />
<glyph unicode=")" d="M94 1810l83 111q150 -125 264 -269t189.5 -300.5t114 -322t38.5 -332.5q0 -164 -37 -326.5t-110.5 -318t-185 -299t-260.5 -270.5l-87 103q135 109 236 240.5t168.5 276.5t100.5 299t33 308q0 159 -34.5 314t-103 297t-171 266.5t-238.5 222.5z" />
<glyph unicode="*" horiz-adv-x="1382" d="M171 1538l72 116l379 -224v414h135v-422l388 193l66 -122l-373 -208l368 -224l-72 -116l-377 229v-433h-135v446l-379 -208l-66 121l364 219z" />
<glyph unicode="+" horiz-adv-x="1559" d="M82 657v142h625v614h143v-614h624v-142h-625v-633h-142v633h-625z" />
<glyph unicode="," horiz-adv-x="691" d="M174 -329q54 13 98.5 45t75.5 73t48.5 87.5t17.5 89.5q0 34 -10.5 63t-33 50.5t-57.5 34.5t-83 13h-22l43 134q78 0 136.5 -24.5t95.5 -65.5t55 -95t18 -112q0 -61 -19 -124t-56.5 -118t-92.5 -98.5t-127 -66.5z" />
<glyph unicode="-" d="M119 552v142h683v-142h-683z" />
<glyph unicode="." horiz-adv-x="691" d="M188 119q0 34 12 63t33 50.5t50 34t63 12.5q72 0 116 -43.5t44 -116.5q0 -33 -12.5 -61t-35 -50t-51.5 -34.5t-61 -12.5q-33 0 -61.5 12.5t-50 34.5t-34 50t-12.5 61z" />
<glyph unicode="/" horiz-adv-x="768" d="M3 -235l685 2132l142 -45l-686 -2131z" />
<glyph unicode=":" horiz-adv-x="768" d="M224 119q0 34 12 63t33 50.5t50 34t63 12.5q73 0 116 -43.5t43 -116.5q0 -33 -12.5 -61t-35 -50t-51 -34.5t-60.5 -12.5t-61 12.5t-50 34.5t-34 50t-13 61zM224 1106q0 33 12 62t33 51t50 34.5t63 12.5q73 0 116 -43.5t43 -116.5q0 -33 -12.5 -61t-35 -50t-51 -34.5 t-60.5 -12.5t-61 12.5t-50 34.5t-34 50t-13 61z" />
<glyph unicode=";" horiz-adv-x="768" d="M153 169q77 43 127.5 65t73.5 22q50 0 89.5 -18.5t68 -51t43.5 -77t15 -96.5q0 -143 -92 -259q-28 -38 -80 -83t-127 -102l-83 110q243 172 243 337q0 80 -69 100l-43 -8l-87 -58zM196 981q0 34 12 64.5t33.5 52t50.5 34.5t62 13q73 0 116.5 -44t43.5 -120 q0 -31 -12.5 -59t-35 -50.5t-51.5 -35.5t-61 -13q-33 0 -61 13t-50 35.5t-34.5 50.5t-12.5 59z" />
<glyph unicode="&#x3c;" horiz-adv-x="1559" d="M74 647v141l1383 642l60 -142l-1208 -566l1200 -567l-60 -139z" />
<glyph unicode="=" horiz-adv-x="1559" d="M82 364v177h1395v-177h-1395zM82 902v177h1395v-177h-1395z" />
<glyph unicode="&#x3e;" horiz-adv-x="1559" d="M85 1288l62 142l1383 -642v-141l-1375 -631l-61 139l1199 567z" />
<glyph unicode="?" horiz-adv-x="853" d="M150 1289q0 47 29 85.5t73 66.5t94 43.5t91 15.5q61 0 122 -25.5t109.5 -68.5t79 -99.5t30.5 -118.5v-15q-6 -75 -27 -133.5t-57.5 -109t-87.5 -98.5t-116 -103q-103 -86 -103 -131q0 -73 69 -119l-82 -106q-59 39 -87.5 96t-28.5 133q0 57 27.5 103.5t70 89t91 83t91 85 t70.5 96.5t28 117q0 38 -16.5 71.5t-43.5 59t-61 40.5t-72 15q-19 0 -45.5 -8t-50.5 -21t-41.5 -27.5t-17.5 -27.5q0 -50 99 -74l-21 -138q-216 37 -216 223zM297 135q0 19 6.5 36t18 29t28.5 19.5t36 7.5q42 0 67 -25t25 -67q0 -19 -7.5 -34.5t-20.5 -28.5t-29 -19.5 t-35 -6.5t-34.5 6.5t-28.5 19.5t-19.5 28.5t-6.5 34.5z" />
<glyph unicode="@" horiz-adv-x="1955" d="M172 606q0 366 233.5 607t596.5 241q340 0 563 -202t223 -527q0 -238 -117.5 -390.5t-286.5 -152.5q-219 0 -220 238h-5q-73 -238 -287 -238q-137 0 -220.5 101t-83.5 272q0 226 115.5 375.5t303.5 149.5q72 0 128.5 -37t72.5 -93h4q2 28 10 115h125q-47 -551 -47 -561 q0 -207 119 -207q108 0 179.5 117t71.5 303q0 275 -174 449t-482 174q-297 0 -491 -208t-194 -520q0 -307 184.5 -495.5t497.5 -188.5q247 0 422 82v-124q-173 -74 -432 -74q-364 0 -586.5 219.5t-222.5 574.5zM708 553q0 -118 51.5 -186t137.5 -68q124 0 196.5 123.5 t72.5 327.5q0 214 -181 214q-124 0 -200.5 -118t-76.5 -293z" />
<glyph unicode="[" horiz-adv-x="506" d="M36 -100v2105h334v-124h-192v-1842h157v-139h-299z" />
<glyph unicode="\" horiz-adv-x="776" d="M-50 1852l142 45l684 -2132l-140 -44z" />
<glyph unicode="]" horiz-adv-x="562" d="M122 1820v124h340l2 -2087h-301v140h157v1823h-198z" />
<glyph unicode="{" horiz-adv-x="1327" d="M373 655v113q58 41 93 72.5t53 62.5t23.5 67.5t5.5 87.5v546q0 152 80 224q15 12 71.5 43t157.5 81l58 -127q-79 -31 -124.5 -52.5t-67.5 -51t-27.5 -76.5t-5.5 -128v-522q0 -143 -162 -285q84 -66 123 -173.5t39 -270.5v-401q0 -53 3.5 -86t23 -59t61 -50.5t118.5 -59.5 l-58 -124q-93 39 -149.5 74.5t-87.5 85.5t-42 121.5t-11 182.5v417q0 53 -4 88t-21.5 64.5t-52.5 61t-97 74.5z" />
<glyph unicode="|" horiz-adv-x="522" d="M185 -338v2312h142v-2312h-142z" />
<glyph unicode="}" horiz-adv-x="1327" d="M401 1825l58 127q104 -47 166 -83t82 -61q30 -35 49 -107t19 -178v-520q0 -38 3.5 -64t19.5 -50.5t50 -52t94 -68.5l-2 -113q-56 -33 -88.5 -62t-49 -68t-22 -97t-5.5 -149v-326q0 -104 -11.5 -175t-44 -122.5t-90.5 -90.5t-151 -79l-58 124q26 16 60 36.5t66.5 46t57 57 t29.5 70.5v431q0 78 2 135.5t7.5 98.5t16.5 71t27.5 55t41.5 48t60 51q-83 65 -119 160t-36 222v528q-11 50 -26.5 79.5t-42.5 49.5t-66.5 36t-96.5 40z" />
<glyph unicode="&#xad;" d="M119 552v142h683v-142h-683z" />
<glyph unicode="&#x2dc;" horiz-adv-x="884" d="M-130 1401v142h962v-142h-523v-641q55 76 131 148.5t163 129.5t181.5 91.5t186.5 34.5l42 -3l106 -80q-28 -54 -50.5 -124t-38 -149.5t-23 -167t-7.5 -173.5q0 -119 15 -231t43 -205l-129 -26q-35 111 -52 234t-17 250q0 136 19 268.5t58 255.5q-362 -48 -639 -540 l-124 83v845h-304z" />
<glyph unicode="&#x2000;" horiz-adv-x="1002" />
<glyph unicode="&#x2001;" horiz-adv-x="2005" />
<glyph unicode="&#x2002;" horiz-adv-x="1002" />
<glyph unicode="&#x2003;" horiz-adv-x="2005" />
<glyph unicode="&#x2004;" horiz-adv-x="668" />
<glyph unicode="&#x2005;" horiz-adv-x="501" />
<glyph unicode="&#x2006;" horiz-adv-x="334" />
<glyph unicode="&#x2007;" horiz-adv-x="334" />
<glyph unicode="&#x2008;" horiz-adv-x="250" />
<glyph unicode="&#x2009;" horiz-adv-x="401" />
<glyph unicode="&#x200a;" horiz-adv-x="111" />
<glyph unicode="&#x2010;" d="M119 552v142h683v-142h-683z" />
<glyph unicode="&#x2011;" d="M119 552v142h683v-142h-683z" />
<glyph unicode="&#x2012;" d="M119 552v142h683v-142h-683z" />
<glyph unicode="&#x2013;" d="M119 549v142h680v-142h-680z" />
<glyph unicode="&#x2014;" horiz-adv-x="1346" d="M100 860v142h1127v-142h-1127z" />
<glyph unicode="&#x2018;" horiz-adv-x="609" d="M127 1557q0 58 19.5 113t55.5 104t85.5 88.5t110.5 68.5l30 -63q-172 -116 -172 -253q46 36 95 36q32 0 58.5 -12t45 -33.5t28.5 -49.5t10 -60q0 -37 -13 -68t-36 -54.5t-53.5 -36.5t-66.5 -13q-45 0 -81 19t-62 51.5t-40 74.5t-14 88z" />
<glyph unicode="&#x2019;" horiz-adv-x="609" d="M127 1759q0 37 13 68t35 54t53 36.5t68 13.5q41 0 77.5 -20t63 -52t41.5 -74.5t15 -87.5q0 -59 -20.5 -114.5t-57 -104t-86.5 -88t-108 -63.5l-31 61q172 104 172 255q-46 -39 -93 -39q-65 0 -103.5 44t-38.5 111z" />
<glyph unicode="&#x201c;" horiz-adv-x="1106" d="M127 1557q0 59 20 116.5t56.5 107.5t86.5 88.5t108 61.5l30 -63q-172 -116 -172 -253q46 36 95 36q32 0 58.5 -12t45 -33.5t28.5 -49.5t10 -60q0 -37 -13 -68t-36 -54.5t-53.5 -36.5t-66.5 -13q-46 0 -82.5 19t-62 51t-39 73.5t-13.5 89.5zM597 1557q0 60 21 118 t58 107.5t87 87.5t108 61l31 -63q-172 -116 -172 -253q45 36 91 36q32 0 58.5 -12t44.5 -33.5t28.5 -49.5t10.5 -60q0 -37 -13 -68t-36 -54.5t-53.5 -36.5t-66.5 -13q-45 0 -81.5 19t-62 51.5t-39.5 74.5t-14 88z" />
<glyph unicode="&#x201d;" horiz-adv-x="1106" d="M127 1759q0 37 13 68t35 54t53 36.5t68 13.5q41 0 77.5 -20t63 -52t41.5 -74.5t15 -87.5q0 -59 -20.5 -114.5t-57 -104t-86.5 -88t-108 -63.5l-31 61q172 104 172 255q-46 -39 -93 -39q-65 0 -103.5 44t-38.5 111zM597 1759q0 37 12.5 68t35.5 54t53.5 36.5t66.5 13.5 q46 0 82.5 -19t62.5 -51t39.5 -74.5t13.5 -89.5q0 -59 -20.5 -114.5t-57 -104t-86.5 -88t-108 -63.5l-31 61q172 100 172 251l-44 -27l-50 -8q-64 0 -102.5 44t-38.5 111z" />
<glyph unicode="&#x202f;" horiz-adv-x="401" />
<glyph unicode="&#x205f;" horiz-adv-x="501" />
<glyph unicode="&#x25fc;" horiz-adv-x="500" d="M0 0z" />
</font>
</defs>
</svg>
